<svg xmlns="http://www.w3.org/2000/svg" viewBox="0 0 64 64" fill="none">
  <!-- Background circle -->
  <circle cx="32" cy="32" r="30" fill="#2563EB" rx="6"/>
  <!-- Network edges -->
  <line x1="16" y1="22" x2="32" y2="16" stroke="#93C5FD" stroke-width="2" stroke-linecap="round"/>
  <line x1="16" y1="42" x2="32" y2="16" stroke="#93C5FD" stroke-width="1.5" stroke-linecap="round"/>
  <line x1="16" y1="22" x2="32" y2="38" stroke="#93C5FD" stroke-width="1.5" stroke-linecap="round"/>
  <line x1="16" y1="42" x2="32" y2="38" stroke="#93C5FD" stroke-width="2" stroke-linecap="round"/>
  <line x1="32" y1="16" x2="48" y2="26" stroke="#93C5FD" stroke-width="2" stroke-linecap="round"/>
  <line x1="32" y1="38" x2="48" y2="26" stroke="#93C5FD" stroke-width="1.5" stroke-linecap="round"/>
  <line x1="32" y1="16" x2="48" y2="44" stroke="#93C5FD" stroke-width="1.5" stroke-linecap="round"/>
  <line x1="32" y1="38" x2="48" y2="44" stroke="#93C5FD" stroke-width="2" stroke-linecap="round"/>
  <!-- Supply chain nodes (left → center → right tiers) -->
  <circle cx="16" cy="22" r="5" fill="#DBEAFE" stroke="#fff" stroke-width="1.5"/>
  <circle cx="16" cy="42" r="5" fill="#DBEAFE" stroke="#fff" stroke-width="1.5"/>
  <circle cx="32" cy="16" r="6" fill="#fff" stroke="#fff" stroke-width="1.5"/>
  <circle cx="32" cy="38" r="6" fill="#fff" stroke="#fff" stroke-width="1.5"/>
  <circle cx="48" cy="26" r="5" fill="#DBEAFE" stroke="#fff" stroke-width="1.5"/>
  <circle cx="48" cy="44" r="5" fill="#DBEAFE" stroke="#fff" stroke-width="1.5"/>
  <!-- Chip/semiconductor icon in center node -->
  <rect x="28" y="34" width="8" height="8" rx="1.5" fill="#2563EB"/>
  <line x1="30" y1="33" x2="30" y2="34" stroke="#2563EB" stroke-width="1" stroke-linecap="round"/>
  <line x1="34" y1="33" x2="34" y2="34" stroke="#2563EB" stroke-width="1" stroke-linecap="round"/>
  <line x1="30" y1="42" x2="30" y2="43" stroke="#2563EB" stroke-width="1" stroke-linecap="round"/>
  <line x1="34" y1="42" x2="34" y2="43" stroke="#2563EB" stroke-width="1" stroke-linecap="round"/>
  <line x1="27" y1="36" x2="28" y2="36" stroke="#2563EB" stroke-width="1" stroke-linecap="round"/>
  <line x1="27" y1="40" x2="28" y2="40" stroke="#2563EB" stroke-width="1" stroke-linecap="round"/>
  <line x1="36" y1="36" x2="37" y2="36" stroke="#2563EB" stroke-width="1" stroke-linecap="round"/>
  <line x1="36" y1="40" x2="37" y2="40" stroke="#2563EB" stroke-width="1" stroke-linecap="round"/>
</svg>
